<svg width="76" height="76" viewBox="0 0 76 76" fill="none" xmlns="http://www.w3.org/2000/svg">
<circle cx="38" cy="38" r="38" fill="#E4E4E4"/>
<path d="M60.8896 22.271C60.6084 22.0924 60.2594 22.0738 59.962 22.2218L52.3378 25.9628C49.6499 27.2816 47.8459 29.9992 47.6104 33.0845L47.4138 35.6217L43.4635 42.4564V39.5382C43.4635 39.5287 43.4587 39.5207 43.4587 39.5104C43.4572 39.41 43.4419 39.3101 43.4122 39.2143L41.5742 33.4705L45.3271 25.6546C45.4919 25.3067 45.4538 24.8913 45.2286 24.5819L39.3282 16.3868C38.9708 15.9344 38.3288 15.8695 37.8941 16.2418C37.8432 16.2853 37.7967 16.3342 37.755 16.3868L31.8542 24.5819C31.6308 24.8924 31.5946 25.3075 31.7608 25.6546L35.5137 33.4705L33.6757 39.2143C33.6461 39.3101 33.6307 39.41 33.6292 39.5104V39.5382V43.6264L27.5025 33.9398C27.4948 33.9287 27.4831 33.9222 27.4762 33.9123C27.4168 33.8268 27.3458 33.7517 27.2648 33.6887C27.2462 33.6746 27.2293 33.6582 27.2095 33.6449C27.1901 33.6315 27.1868 33.6243 27.1744 33.617L23.569 31.4453L22.0723 29.0791L19.9088 25.6577C19.6605 25.2655 19.1877 25.0996 18.7622 25.2552L14.9356 26.6533C14.424 26.8429 14.1563 27.4284 14.3383 27.9614C14.3647 28.0396 14.4002 28.1136 14.4442 28.1826L17.1494 32.4608L18.6413 34.8259L19.1328 39.1346C19.1353 39.1483 19.1386 39.1621 19.1427 39.1754C19.147 39.1972 19.1522 39.2189 19.1584 39.2399C19.1807 39.3482 19.2199 39.4524 19.2745 39.5474C19.2814 39.5577 19.2814 39.571 19.2884 39.5813C19.2954 39.5912 33.9127 62.6698 33.9834 62.7323C34.7026 64.7003 36.5142 66.0008 38.5357 66C38.9371 65.9996 39.337 65.9489 39.7266 65.8485C40.9937 65.5247 42.0839 64.687 42.7545 63.5208L55.8337 40.9191L57.8988 39.5577C58.9838 38.839 59.8942 37.8689 60.56 36.723C61.4049 35.2654 61.8158 33.5789 61.7399 31.8779L61.3565 23.1072C61.3448 22.7646 61.1698 22.4506 60.8896 22.271V22.271ZM53.7668 40.5254L52.2452 43.1572L47.1915 39.9819L48.7149 37.3501L53.7668 40.5254ZM35.5961 56.0482V40.5624H41.4965V45.8546L35.5961 56.0482ZM37.2888 34.4162H39.8043L41.1149 38.5136H35.9777L37.2888 34.4162ZM38.5463 27.2453C38.0033 27.2453 37.5631 26.7868 37.5631 26.2211C37.5631 25.6554 38.0033 25.1968 38.5463 25.1968C39.0894 25.1968 39.53 25.6554 39.53 26.2211C39.53 26.7868 39.0894 27.2453 38.5463 27.2453ZM38.5463 18.7092L43.2954 25.3044L39.9054 32.3673H39.5296V29.1058C41.0659 28.5401 41.8712 26.7841 41.3277 25.1839C40.7846 23.5836 39.0993 22.7451 37.5631 23.3109C36.0268 23.8766 35.2219 25.6325 35.765 27.2328C36.062 28.1078 36.723 28.7964 37.5631 29.1058V32.3673H37.1873L33.7973 25.3044L38.5463 18.7092ZM24.8112 34.5604L24.5219 34.7592L20.9001 37.2444L20.5668 34.3414C20.5485 34.1835 20.4954 34.0325 20.4112 33.8997L19.3298 32.1892L20.9719 31.0623L22.0537 32.7728C22.1379 32.9056 22.2503 33.0158 22.3822 33.0956L24.8112 34.5604ZM18.6893 27.4502L19.889 29.3484L18.2469 30.4752L16.7718 28.1502L18.6893 27.4502ZM23.9378 37.6114L26.3966 35.92L33.6292 47.3492V58.522L21.4743 39.3036L23.9378 37.6114ZM41.0728 62.4565C40.239 63.9149 38.4284 64.3932 37.0284 63.5246C35.6284 62.6564 35.1695 60.77 36.003 59.3117C36.0092 59.3014 36.0151 59.2915 36.021 59.2812L43.4466 46.4527H43.4635V46.4253L46.1756 41.7385L48.7021 43.3285L51.2323 44.912L41.0728 62.4565ZM58.8802 35.6609C58.373 36.5337 57.6787 37.273 56.8518 37.8201L55.1049 38.9725L52.2533 37.1842L49.4012 35.3954L49.5634 33.2443C49.7436 30.8922 51.1187 28.8208 53.1677 27.8149L59.4614 24.7284L59.5866 27.5833C59.4881 27.5723 59.3885 27.5765 59.2915 27.5967L56.9096 28.2116C54.693 28.7754 52.9769 30.6027 52.4843 32.9235C52.3657 33.4755 52.6989 34.0229 53.2288 34.1465C53.2995 34.1637 53.3717 34.1725 53.4442 34.1725C53.9041 34.1717 54.3026 33.839 54.4029 33.3714C54.7354 31.8108 55.8894 30.5821 57.3798 30.2017L59.6771 29.6085L59.7804 31.9649C59.8378 33.2623 59.5247 34.5486 58.8802 35.6609V35.6609Z" fill="black"/>
</svg>
