<svg width="76" height="76" viewBox="0 0 76 76" fill="none" xmlns="http://www.w3.org/2000/svg">
<circle cx="38" cy="38" r="38" fill="#E4E4E4"/>
<path d="M19.5267 26.9558C19.6781 26.8432 19.7773 26.6691 19.7773 26.4713C19.7773 26.1312 19.4894 25.8557 19.1344 25.8557H18.6352V22.1955C18.6352 21.4639 18.0136 20.8685 17.2494 20.8685C16.78 20.8685 16.398 20.5028 16.398 20.0534C16.398 19.6038 16.78 19.2381 17.2538 19.2381C17.2587 19.2381 17.689 19.254 17.8696 19.4827C18.3839 20.1336 19.1443 20.251 19.8069 19.7816C20.0923 19.5793 20.1523 19.194 19.9411 18.9207C19.7298 18.6473 19.3273 18.5898 19.0419 18.7922C19.0152 18.811 18.9949 18.8225 18.9807 18.8294C18.9626 18.8153 18.9333 18.7886 18.8951 18.74C18.3268 18.0208 17.3515 18.0069 17.2493 18.007C16.0709 18.007 15.1121 18.925 15.1121 20.0534C15.1121 21.1817 16.0709 22.0996 17.2493 22.0996C17.3045 22.0996 17.3493 22.1427 17.3493 22.1955V25.8557H16.8503C16.4952 25.8557 16.2074 26.1312 16.2074 26.4713C16.2074 26.669 16.3066 26.8432 16.458 26.9558C15.9413 27.3742 15.6118 27.9985 15.6118 28.6957C15.6118 29.9524 16.6797 30.9749 17.9922 30.9749C19.3049 30.9749 20.3727 29.9524 20.3727 28.6957C20.3729 27.9985 20.0433 27.3744 19.5267 26.9558ZM17.9924 29.7438C17.3889 29.7438 16.8978 29.2737 16.8978 28.6957C16.8978 28.1177 17.3888 27.6475 17.9924 27.6475C18.5959 27.6475 19.0871 28.1177 19.0871 28.6957C19.0871 29.2737 18.5959 29.7438 17.9924 29.7438Z" fill="black"/>
<path d="M26.6191 25.6889C26.6191 24.9918 26.2895 24.3674 25.7728 23.9489C25.9244 23.8364 26.0235 23.6622 26.0235 23.4642C26.0235 23.1242 25.7357 22.8487 25.3806 22.8487H24.8815V19.1887C24.8815 18.4571 24.2598 17.8618 23.4956 17.8618C23.0262 17.8618 22.6442 17.496 22.6442 17.0467C22.6442 16.5969 23.0262 16.2311 23.4997 16.2311C23.5046 16.2311 23.9351 16.2471 24.1156 16.4754C24.63 17.1268 25.3904 17.2446 26.0529 16.7748C26.3384 16.5726 26.3984 16.1872 26.1872 15.9139C25.9758 15.6405 25.5733 15.583 25.288 15.7854C25.2614 15.8043 25.2411 15.8157 25.2271 15.8225C25.2089 15.8084 25.1796 15.7816 25.1412 15.7329C24.5733 15.0143 23.6009 15.0034 23.4956 15C22.3171 15 21.3584 15.9181 21.3584 17.0467C21.3584 18.1749 22.3171 19.0928 23.4956 19.0928C23.5509 19.0928 23.5957 19.1359 23.5957 19.1887V22.8488H23.0967C22.7416 22.8488 22.4538 23.1243 22.4538 23.4644C22.4538 23.6622 22.5529 23.8363 22.7045 23.949C22.1877 24.3674 21.8581 24.9918 21.8581 25.689C21.8581 26.9457 22.926 27.9682 24.2386 27.9682C25.5511 27.9682 26.6191 26.9456 26.6191 25.6889ZM24.2386 26.737C23.635 26.737 23.1438 26.2669 23.1438 25.6889C23.1438 25.111 23.6349 24.6408 24.2386 24.6408C24.8421 24.6408 25.3333 25.1109 25.3333 25.6889C25.3333 26.2669 24.8421 26.737 24.2386 26.737Z" fill="black"/>
<path d="M61.6972 41.9009C61.6972 41.4427 61.5286 41.022 61.2488 40.6909C61.6411 40.339 61.888 39.8402 61.888 39.2861C61.888 38.7374 61.6461 38.2428 61.2605 37.8914C61.5463 37.5585 61.7184 37.1327 61.7184 36.6691C61.7184 36.0201 61.3806 35.446 60.8654 35.0965C61.0509 34.8049 61.1598 34.4639 61.1598 34.0981C61.1598 33.3489 60.7099 32.6997 60.0561 32.381C60.1569 32.1515 60.213 31.8997 60.213 31.6355C60.213 30.7873 59.6371 30.0667 58.8407 29.8097C58.8821 29.6558 58.9065 29.4954 58.9065 29.3294C58.9065 28.3781 58.1821 27.5875 57.2342 27.4316C57.2404 27.3706 57.244 27.3089 57.244 27.2462C57.244 26.192 56.3551 25.3339 55.2574 25.32C55.1942 24.3115 54.3192 23.5088 53.2501 23.5088C52.815 23.5088 52.4129 23.643 52.0833 23.8685C49.6587 22.3873 46.9213 21.5567 44.1009 21.4469V21.34C44.1009 21 43.8132 20.7245 43.458 20.7245C43.1029 20.7245 42.8151 21 42.8151 21.34V21.4469C39.9951 21.5567 37.2577 22.3873 34.8328 23.8686C34.5033 23.6431 34.1011 23.5088 33.666 23.5088C32.5969 23.5088 31.722 24.3115 31.6587 25.32C30.5611 25.3339 29.6721 26.192 29.6721 27.2462C29.6721 27.3089 29.6757 27.3706 29.6819 27.4316C28.734 27.5876 28.0096 28.3781 28.0096 29.3294C28.0096 29.4955 28.0339 29.6558 28.0754 29.8097C27.279 30.0667 26.7029 30.7873 26.7029 31.6355C26.7029 31.8995 26.759 32.1515 26.8599 32.381C26.2061 32.6999 25.7563 33.349 25.7563 34.0981C25.7563 34.464 25.8653 34.8049 26.0507 35.0965C25.5356 35.446 25.1977 36.0201 25.1977 36.6691C25.1977 37.1327 25.3697 37.5585 25.6555 37.8914C25.2699 38.2428 25.0281 38.7374 25.0281 39.2861C25.0281 39.8402 25.2749 40.339 25.6674 40.691C25.3875 41.022 25.219 41.4428 25.219 41.9009C25.219 42.5223 25.5289 43.0744 26.0072 43.4272C25.6786 43.8289 25.4808 44.333 25.4808 44.8814C25.4808 45.8917 26.1472 46.7537 27.0801 47.0918C26.8383 47.4993 26.6996 47.9697 26.6996 48.4708C26.6996 49.9856 27.9619 51.2226 29.5321 51.2706C29.4388 51.5639 29.3883 51.8748 29.3883 52.1968C29.3883 53.9548 30.882 55.3851 32.718 55.3851C33.1063 55.3851 33.4789 55.3206 33.8256 55.2031C33.8347 57.1113 35.4585 58.6612 37.4537 58.6612C38.4156 58.6612 39.2908 58.3002 39.9409 57.7133C40.498 59.0514 41.8642 60 43.458 60C45.0519 60 46.4179 59.0513 46.9752 57.7132C47.6253 58.3001 48.5002 58.6612 49.4623 58.6612C51.4574 58.6612 53.0812 57.1113 53.0905 55.203C53.4371 55.3206 53.8099 55.3851 54.1981 55.3851C56.0342 55.3851 57.528 53.9548 57.528 52.1968C57.528 51.8748 57.4775 51.5638 57.3843 51.2706C58.9545 51.2224 60.2166 49.9855 60.2166 48.4708C60.2166 47.9697 60.0778 47.4992 59.8361 47.0918C60.7691 46.7537 61.4354 45.8917 61.4354 44.8814C61.4354 44.333 61.2376 43.8288 60.9091 43.4272C61.3872 43.0744 61.6972 42.5223 61.6972 41.9009ZM59.6838 42.5977C59.6353 42.5977 59.5881 42.5929 59.5422 42.5843C59.5156 42.5781 59.4899 42.57 59.4629 42.5647C59.1694 42.4749 58.9563 42.2115 58.9563 41.9009C58.9563 41.5169 59.2825 41.2046 59.6836 41.2046C60.0848 41.2046 60.4113 41.5169 60.4113 41.9009C60.4114 42.2851 60.0849 42.5977 59.6838 42.5977ZM56.495 44.8814C56.495 45.1821 56.5563 45.4688 56.6637 45.7336C55.3496 46.0089 54.3627 47.1313 54.3627 48.4708C54.3627 48.6575 54.3822 48.8398 54.4188 49.0165C54.3458 49.0118 54.2723 49.0087 54.1979 49.0087C52.4354 49.0087 50.989 50.3271 50.876 51.9879C50.4413 51.8111 49.9633 51.7133 49.4621 51.7133C47.9717 51.7133 46.6887 52.5785 46.131 53.8115C45.4457 53.1567 44.5003 52.7511 43.4579 52.7511C42.4155 52.7511 41.4701 53.1566 40.7847 53.8115C40.2271 52.5783 38.944 51.7133 37.4535 51.7133C36.9523 51.7133 36.4747 51.8111 36.0401 51.9877C35.9269 50.327 34.4807 49.0087 32.7179 49.0087C32.6435 49.0087 32.5701 49.0118 32.497 49.0165C32.5335 48.8398 32.5531 48.6575 32.5531 48.4708C32.5531 47.1312 31.5662 46.0089 30.2522 45.7336C30.3595 45.4689 30.4208 45.1821 30.4208 44.8814C30.4208 43.9493 29.853 43.1435 29.0325 42.7586C29.1675 42.4998 29.2453 42.2093 29.2453 41.9009C29.2453 41.3468 28.9985 40.8481 28.6062 40.4961C28.886 40.165 29.0544 39.7443 29.0544 39.2861C29.0544 38.8225 28.8824 38.3966 28.5965 38.0638C28.9821 37.7124 29.224 37.2178 29.224 36.6691C29.224 36.3033 29.1151 35.9624 28.9297 35.6708C29.4448 35.3213 29.7827 34.7473 29.7827 34.0981C29.7827 33.834 29.7266 33.5823 29.6258 33.3528C30.2795 33.034 30.7293 32.3847 30.7293 31.6355C30.7293 31.4693 30.705 31.3089 30.6633 31.155C31.4598 30.8981 32.0359 30.1776 32.0359 29.3294C32.0359 29.2668 32.0323 29.2051 32.0261 29.144C32.9349 28.9947 33.6359 28.2612 33.6922 27.3624C34.7899 27.3488 35.6789 26.4905 35.6789 25.4362C35.6789 25.2376 35.6473 25.0459 35.5888 24.8654C37.7917 23.5348 40.2697 22.7867 42.8201 22.6794C42.8473 22.9954 43.1206 23.2447 43.4578 23.2447C43.7949 23.2447 44.0683 22.9956 44.0954 22.6794C46.6463 22.7867 49.1244 23.5348 51.3269 24.8657C51.2684 25.046 51.2368 25.2376 51.2368 25.4362C51.2368 26.4905 52.1256 27.3488 53.2233 27.3624C53.2796 28.2612 53.9806 28.9946 54.8893 29.144C54.8831 29.2051 54.8795 29.2668 54.8795 29.3294C54.8795 30.1776 55.4554 30.8979 56.2522 31.155C56.2107 31.3089 56.1863 31.4694 56.1863 31.6355C56.1863 32.3847 56.6361 33.034 57.2899 33.3528C57.1891 33.5822 57.133 33.8339 57.133 34.0981C57.133 34.7473 57.4708 35.3214 57.986 35.6709C57.8006 35.9625 57.6917 36.3036 57.6917 36.6691C57.6917 37.2178 57.9335 37.7124 58.3192 38.0638C58.0333 38.3966 57.8614 38.8225 57.8614 39.2861C57.8614 39.7443 58.0298 40.1651 58.3096 40.4961C57.9173 40.8481 57.6705 41.3468 57.6705 41.9009C57.6705 42.2093 57.7483 42.4998 57.8833 42.7586C57.0628 43.1435 56.495 43.9492 56.495 44.8814ZM27.3737 42.5841C27.328 42.5928 27.2805 42.5976 27.232 42.5976C26.8307 42.5976 26.5044 42.285 26.5044 41.9008C26.5044 41.5168 26.8307 41.2045 27.232 41.2045C27.6331 41.2045 27.9594 41.5168 27.9594 41.9008C27.9594 42.2114 27.7461 42.4749 27.4526 42.5647C27.4258 42.57 27.4002 42.5781 27.3737 42.5841ZM28.4969 34.098C28.4969 34.4822 28.1705 34.7948 27.7694 34.7948C27.3682 34.7948 27.0419 34.4822 27.0419 34.098C27.0419 33.714 27.3682 33.4017 27.7694 33.4017C28.1705 33.4017 28.4969 33.714 28.4969 34.098ZM27.2107 35.9724C27.6119 35.9724 27.9382 36.2849 27.9382 36.669C27.9382 37.0531 27.6119 37.3655 27.2107 37.3655C26.8095 37.3655 26.4832 37.0531 26.4832 36.669C26.4832 36.285 26.8095 35.9724 27.2107 35.9724ZM27.0411 38.5894C27.4423 38.5894 27.7686 38.9019 27.7686 39.286C27.7686 39.6701 27.4423 39.9825 27.0411 39.9825C26.6399 39.9825 26.3136 39.6701 26.3136 39.286C26.3136 38.9019 26.6399 38.5894 27.0411 38.5894ZM59.8746 39.9826C59.4734 39.9826 59.1472 39.6702 59.1472 39.2861C59.1472 38.902 59.4734 38.5896 59.8746 38.5896C60.2757 38.5896 60.6021 38.902 60.6021 39.2861C60.6022 39.6701 60.2757 39.9826 59.8746 39.9826ZM58.9776 36.6691C58.9776 36.285 59.3039 35.9725 59.7051 35.9725C60.1063 35.9725 60.4325 36.285 60.4325 36.6691C60.4325 37.0532 60.1063 37.3656 59.7051 37.3656C59.3039 37.3656 58.9776 37.0532 58.9776 36.6691ZM59.1463 34.7948C58.7451 34.7948 58.4189 34.4822 58.4189 34.098C58.4189 33.714 58.7451 33.4017 59.1463 33.4017C59.5475 33.4017 59.8739 33.714 59.8739 34.098C59.8739 34.4822 59.5476 34.7948 59.1463 34.7948ZM58.1998 32.3319C57.7987 32.3319 57.4722 32.0194 57.4722 31.6354C57.4722 31.2513 57.7987 30.9388 58.1998 30.9388C58.6007 30.9388 58.9271 31.2513 58.9271 31.6354C58.9271 32.0194 58.6007 32.3319 58.1998 32.3319ZM57.6206 29.3292C57.6206 29.7132 57.2943 30.0255 56.8931 30.0255C56.4918 30.0255 56.1655 29.7132 56.1655 29.3292C56.1655 28.9451 56.4918 28.6326 56.8931 28.6326C57.2943 28.6326 57.6206 28.9451 57.6206 29.3292ZM55.9581 27.2461C55.9581 27.6302 55.6317 27.9426 55.2306 27.9426C54.8294 27.9426 54.5031 27.6302 54.5031 27.2461C54.5031 26.862 54.8294 26.5496 55.2306 26.5496C55.6317 26.5494 55.9581 26.8619 55.9581 27.2461ZM53.9777 25.4359C53.9777 25.82 53.6512 26.1325 53.2499 26.1325C52.8489 26.1325 52.5227 25.82 52.5227 25.4359C52.5227 25.052 52.8489 24.7396 53.2499 24.7396C53.6512 24.7396 53.9777 25.052 53.9777 25.4359ZM33.6657 24.7396C34.0668 24.7396 34.3931 25.052 34.3931 25.4359C34.3931 25.82 34.0668 26.1325 33.6657 26.1325C33.2644 26.1325 32.9381 25.82 32.9381 25.4359C32.9381 25.052 33.2644 24.7396 33.6657 24.7396ZM31.6852 26.5494C32.0864 26.5494 32.4126 26.8619 32.4126 27.246C32.4126 27.6301 32.0864 27.9425 31.6852 27.9425C31.2841 27.9425 30.9576 27.6301 30.9576 27.246C30.9576 26.8619 31.2841 26.5494 31.6852 26.5494ZM30.0227 28.6326C30.4239 28.6326 30.7501 28.9451 30.7501 29.3292C30.7501 29.7132 30.4239 30.0255 30.0227 30.0255C29.6215 30.0255 29.2951 29.7132 29.2951 29.3292C29.2951 28.9451 29.6215 28.6326 30.0227 28.6326ZM28.716 30.9388C29.1171 30.9388 29.4435 31.2513 29.4435 31.6354C29.4435 32.0194 29.1171 32.3319 28.716 32.3319C28.3148 32.3319 27.9885 32.0194 27.9885 31.6354C27.9885 31.2513 28.3148 30.9388 28.716 30.9388ZM27.6326 43.7901C27.6612 43.7846 27.6889 43.7766 27.7169 43.7698C27.7925 43.7553 27.8706 43.7474 27.9505 43.7474C28.6036 43.7474 29.1349 44.2561 29.1349 44.8813C29.1349 45.3139 28.8804 45.6904 28.5074 45.8814C28.4593 45.9006 28.4118 45.9207 28.365 45.9423C28.2357 45.9887 28.0965 46.0153 27.9505 46.0153C27.2975 46.0153 26.7662 45.5066 26.7662 44.8813C26.7662 44.3617 27.1337 43.9237 27.6326 43.7901ZM27.9851 48.4708C27.9851 47.8556 28.3572 47.3233 28.8964 47.0655C28.9326 47.0511 28.9675 47.034 29.0028 47.0178C29.1952 46.942 29.4055 46.8994 29.6262 46.8994C30.5311 46.8994 31.2674 47.6043 31.2674 48.4708C31.2674 49.3371 30.5311 50.0418 29.6262 50.0418C28.7212 50.0418 27.9851 49.3371 27.9851 48.4708ZM30.6738 52.1968C30.6738 51.1176 31.5907 50.2397 32.7177 50.2397C33.8451 50.2397 34.762 51.1177 34.762 52.1968C34.762 53.276 33.845 54.154 32.7177 54.154C31.5907 54.1541 30.6738 53.2761 30.6738 52.1968ZM37.4535 57.4301C36.1618 57.4301 35.1108 56.4238 35.1108 55.187C35.1108 53.9503 36.1618 52.9441 37.4535 52.9441C38.7454 52.9441 39.7964 53.9503 39.7964 55.187C39.7962 56.4238 38.7452 57.4301 37.4535 57.4301ZM43.4579 58.7689C42.0794 58.7689 40.9581 57.6951 40.9581 56.3753C40.9581 55.0556 42.0795 53.982 43.4579 53.982C44.8363 53.982 45.9576 55.0558 45.9576 56.3753C45.9576 57.6952 44.8363 58.7689 43.4579 58.7689ZM49.4621 57.4301C48.1703 57.4301 47.1194 56.4238 47.1194 55.187C47.1194 53.9503 48.1703 52.9441 49.4621 52.9441C50.754 52.9441 51.805 53.9503 51.805 55.187C51.805 56.4238 50.754 57.4301 49.4621 57.4301ZM54.1979 54.1541C53.0708 54.1541 52.1538 53.2761 52.1538 52.197C52.1538 51.1178 53.0708 50.2398 54.1979 50.2398C55.3252 50.2398 56.2421 51.1178 56.2421 52.197C56.2421 53.2761 55.3252 54.1541 54.1979 54.1541ZM57.2896 50.0418C56.3847 50.0418 55.6484 49.3371 55.6484 48.4708C55.6484 47.6043 56.3847 46.8994 57.2896 46.8994C57.5105 46.8994 57.7209 46.942 57.9134 47.018C57.9486 47.034 57.9832 47.051 58.0192 47.0654C58.5586 47.3232 58.9308 47.8555 58.9308 48.4708C58.9308 49.3371 58.1946 50.0418 57.2896 50.0418ZM58.9654 46.0154C58.8192 46.0154 58.6798 45.9887 58.5503 45.9421C58.5039 45.9207 58.4566 45.9008 58.4085 45.8818C58.0354 45.6906 57.7807 45.3142 57.7807 44.8814C57.7807 44.2562 58.3121 43.7475 58.9653 43.7475C59.0451 43.7475 59.1232 43.7554 59.1986 43.7699C59.2269 43.7767 59.2546 43.7847 59.2832 43.7903C59.782 43.9239 60.1492 44.3619 60.1492 44.8814C60.1495 45.5067 59.6183 46.0154 58.9654 46.0154Z" fill="black"/>
</svg>
