<svg width="76" height="76" viewBox="0 0 76 76" fill="none" xmlns="http://www.w3.org/2000/svg">
<circle cx="38" cy="38" r="38" fill="#E4E4E4"/>
<g clip-path="url(#clip0)">
<path d="M57.0696 42.6646H48.7118C49.5716 41.5809 50.218 40.5537 50.8066 39.6168C50.9533 39.3834 51.0979 39.1531 51.2434 38.9259C52.7041 36.6419 53.3989 34.7697 53.4961 32.8556C53.5875 31.0561 53.1185 29.2191 52.067 27.2752C52.0666 27.2745 52.0663 27.2739 52.0659 27.2732C51.821 26.8205 51.5446 26.3621 51.2362 25.8969C49.46 23.2212 48.5253 21.5656 49.5453 18.4959C49.5671 18.4482 49.5843 18.3978 49.5962 18.3452C49.9927 17.2055 50.6529 15.8713 51.6319 14.2234C51.8132 13.9203 52.1506 13.3563 51.8633 12.8186C51.5888 12.3047 51.0285 12.3047 50.7276 12.3047H31.0927C30.7917 12.3047 30.2316 12.3047 29.957 12.8186C29.6698 13.3563 30.0071 13.9203 30.1873 14.2215C32.505 18.1215 32.9122 20.1529 32.6236 21.7574H24.2451L26.0253 19.9576C26.032 19.9508 26.0386 19.9439 26.0451 19.9368C27.9945 17.8085 28.2565 15.6134 26.7457 14.0647C25.9659 13.2659 24.9682 13.2917 24.1415 14.1321C22.5373 15.7652 20.9186 17.4394 19.353 19.0585C18.5199 19.9201 17.6868 20.7817 16.8525 21.6409C16.1773 22.3365 16.1233 22.382 15.6541 22.385C15.5101 21.5911 14.8395 20.9883 14.035 20.9883H11.6487C10.7396 20.9884 10 21.7577 10 22.7035V36.3237C10 37.2695 10.7396 38.0388 11.6487 38.0388H14.035C14.944 38.0388 15.6837 37.2695 15.6837 36.3237V36.2523C16.0464 36.2503 16.3796 36.2411 16.6759 36.2325C18.2138 36.1879 18.6812 36.2082 19.218 36.9534C20.0239 38.0715 21.2071 38.7128 22.4643 38.7128H30.4439C30.486 38.7795 30.5301 38.8489 30.5795 38.9253C30.7213 39.1475 30.8625 39.3727 31.0057 39.601C31.5961 40.5426 32.2444 41.575 33.1087 42.6646H26.2844C24.6686 42.6646 23.354 44.0309 23.354 45.7102C23.354 47.3912 24.6686 48.7588 26.2844 48.7588H35.9051V51.3698C35.9051 52.5505 36.78 53.511 37.8555 53.511H38.557V57.6586H33.0472C31.9305 57.6586 31.022 58.6038 31.022 59.7655V61.5914C31.022 62.7515 31.9305 63.6953 33.0472 63.6953H50.307C51.4237 63.6953 52.3322 62.7515 52.3322 61.5914V59.7655C52.3322 58.6038 51.4237 57.6586 50.307 57.6586H44.7972V53.511H45.4987C46.5742 53.511 47.4491 52.5505 47.4491 51.3698V48.7588H57.0698C58.6856 48.7588 60.0002 47.3913 60.0002 45.7102C60 44.0308 58.6855 42.6646 57.0696 42.6646V42.6646ZM51.9693 33.4423H39.7061C39.815 33.1415 39.875 32.8158 39.875 32.4759C39.875 31.9698 39.7426 31.4955 39.5127 31.0876C40.5401 30.7095 41.2785 29.6893 41.2785 28.4925C41.2785 28.4611 41.2772 28.43 41.2763 28.3989H50.988C51.9258 30.2649 52.1875 31.8935 51.9693 33.4423V33.4423ZM31.6728 13.8281H50.1477C49.3654 15.1765 48.7819 16.3509 48.3764 17.4079L42.7309 17.4026C42.7307 17.4026 42.7305 17.4026 42.7302 17.4026C42.326 17.4026 41.9981 17.7433 41.9978 18.1636C41.9974 18.5843 42.325 18.9256 42.7295 18.9261L47.8948 18.9309C47.7063 19.712 47.6309 20.4329 47.6587 21.1236C47.7408 23.1609 48.7369 24.8136 50.0305 26.7621C50.0557 26.8001 50.0799 26.8378 50.1046 26.8756H40.7717C40.2902 26.1885 39.5112 25.7408 38.6332 25.7408H37.4855C37.6643 25.37 37.7655 24.9519 37.7655 24.5095C37.7655 22.9921 36.5789 21.7575 35.1203 21.7575H34.1061C34.226 20.8709 34.171 19.949 33.9252 18.931L39.3507 18.9262C39.7552 18.9259 40.0828 18.5845 40.0825 18.1638C40.0822 17.7434 39.7544 17.4027 39.3501 17.4027C39.3499 17.4027 39.3497 17.4027 39.3495 17.4027L33.444 17.408C33.0361 16.3444 32.4507 15.1687 31.6728 13.8281V13.8281ZM14.2188 36.3237C14.2188 36.4276 14.1346 36.5154 14.0349 36.5154H11.6487C11.549 36.5154 11.4648 36.4276 11.4648 36.3237V22.7035C11.4648 22.5996 11.549 22.5118 11.6487 22.5118H14.035C14.1347 22.5118 14.2188 22.5996 14.2188 22.7035V36.3237H14.2188ZM22.4642 37.1893C21.6609 37.1893 20.9243 36.781 20.39 36.0398C19.3748 34.6305 18.2255 34.664 16.6351 34.7097C16.3489 34.718 16.0276 34.7268 15.6836 34.7289V23.9067C16.6463 23.8858 17.0056 23.6274 17.8831 22.7235C18.7182 21.8635 19.552 21.0012 20.3858 20.1388C21.9493 18.5218 23.566 16.8497 25.1657 15.2213C25.4775 14.9041 25.568 14.9967 25.7175 15.1499C26.9194 16.3819 25.7853 18.0086 24.9938 18.8758L22.4528 21.4449C22.125 21.7786 22.0181 22.2326 22.1738 22.6298C22.3313 23.0314 22.7151 23.281 23.1755 23.281H33.2025H35.1202C35.7711 23.281 36.3006 23.832 36.3006 24.5095C36.3006 25.1884 35.7711 25.7408 35.1202 25.7408H30.1956C29.7911 25.7408 29.4632 26.0818 29.4632 26.5025C29.4632 26.9232 29.7911 27.2642 30.1956 27.2642H38.6331C39.284 27.2642 39.8135 27.8153 39.8135 28.4927C39.8135 29.1702 39.284 29.7212 38.6331 29.7212H29.7997C29.3952 29.7212 29.0673 30.0623 29.0673 30.483C29.0673 30.9036 29.3952 31.2447 29.7997 31.2447H37.2269C37.8793 31.2447 38.4101 31.7971 38.4101 32.476C38.4101 32.9265 38.1746 33.3201 37.8254 33.5339C37.8132 33.5408 37.8016 33.5487 37.7897 33.5563C37.6223 33.6508 37.4306 33.7045 37.227 33.7045H28.6594C28.2549 33.7045 27.927 34.0456 27.927 34.4662C27.927 34.8869 28.2549 35.228 28.6594 35.228H32.3106C32.8303 35.228 33.2529 35.6679 33.2529 36.2087C33.2529 36.7496 32.8302 37.1895 32.3106 37.1895H22.4642V37.1893ZM32.2325 38.7689C32.2207 38.75 32.2089 38.7317 32.1971 38.7128H32.3106C33.638 38.7128 34.7178 37.5894 34.7178 36.2085C34.7178 35.8606 34.6491 35.5292 34.5253 35.2277H37.227C37.6296 35.2277 38.0113 35.1335 38.3533 34.9656H51.6002C51.2477 36.0003 50.7014 37.0224 50.0237 38.0819C49.8762 38.3124 49.7293 38.5462 49.5803 38.7834C48.8034 40.0198 48.0008 41.2963 46.7604 42.6645H35.0599C33.8146 41.2908 33.0106 40.0097 32.2325 38.7689V38.7689ZM50.8672 59.7655V61.5914C50.8672 61.9061 50.6106 62.1719 50.3068 62.1719H33.047C32.7433 62.1719 32.4866 61.9061 32.4866 61.5914V59.7655C32.4866 59.4438 32.738 59.1821 33.047 59.1821H50.3068C50.6158 59.1821 50.8672 59.4438 50.8672 59.7655ZM43.3321 57.6586H40.0218V53.511H43.3321V57.6586ZM57.0696 47.2354H43.2507C42.8462 47.2354 42.5183 47.5764 42.5183 47.9971C42.5183 48.4178 42.8462 48.7588 43.2507 48.7588H45.9841V51.3698C45.9841 51.7046 45.7617 51.9876 45.4985 51.9876H37.8555C37.5923 51.9876 37.3699 51.7046 37.3699 51.3698V48.7588H40.0286C40.4331 48.7588 40.761 48.4178 40.761 47.9971C40.761 47.5764 40.4331 47.2354 40.0286 47.2354H26.2843C25.4762 47.2354 24.8188 46.5513 24.8188 45.7102C24.8188 44.8708 25.4762 44.188 26.2843 44.188H57.0696C57.8777 44.188 58.5352 44.8709 58.5352 45.7102C58.5352 46.5512 57.8777 47.2354 57.0696 47.2354V47.2354Z" fill="black"/>
</g>
<defs>
<clipPath id="clip0">
<rect width="50" height="52" fill="white" transform="translate(10 12)"/>
</clipPath>
</defs>
</svg>
