<svg width="76" height="76" viewBox="0 0 76 76" fill="none" xmlns="http://www.w3.org/2000/svg">
<circle cx="38" cy="38" r="38" fill="#E4E4E4"/>
<g clip-path="url(#clip0)">
<path d="M57.8049 38.584H54.9237C54.3093 38.584 53.8093 39.1241 53.8032 39.7903H49.6095C49.6705 39.1968 49.702 38.5966 49.702 37.9978C49.702 32.9954 47.5428 28.2983 43.8949 25.2851L47.7729 20.2997C47.9815 20.4874 48.2346 20.5797 48.487 20.5797C48.8057 20.5797 49.1226 20.4332 49.344 20.1485L51.2043 17.757C52.3417 16.2946 52.1726 14.0991 50.8274 12.8627C50.1757 12.2639 49.3483 11.9766 48.4979 12.054C47.6474 12.1314 46.8756 12.5641 46.3246 13.2724L44.4643 15.6638C44.2709 15.9123 44.1782 16.2278 44.2032 16.5522C44.2279 16.8724 44.3648 17.1632 44.5882 17.3727L40.173 23.0489C38.5271 22.3776 36.7949 22.0372 35.0182 22.0372C26.9215 22.0372 20.3344 29.1972 20.3344 37.9978C20.3344 38.8156 20.3923 39.6333 20.5058 40.4378L15.8307 41.0403C15.3493 41.1024 14.9999 41.53 15 42.0569C15 42.5839 15.3495 43.0113 15.8308 43.0733L21.3304 43.7821C21.6998 44.8141 22.1673 45.8035 22.7269 46.732L20.8336 49.8469C20.5664 50.2866 20.6412 50.8526 21.0114 51.1928C21.3809 51.5324 21.9069 51.5194 22.2618 51.1595L24.3863 49.0044C27.1528 52.1595 30.9956 53.9584 35.0183 53.9584C37.9974 53.9584 40.8658 52.9939 43.3136 51.1693C45.6143 49.4542 47.4012 47.0917 48.501 44.3233H53.8033C53.8094 44.9896 54.3094 45.5297 54.9239 45.5297H57.8051C59.5668 45.5297 61.0002 43.9717 61.0002 42.0567C61.0002 40.1418 59.5666 38.584 57.8049 38.584V38.584ZM44.1867 42.8611C44.3741 42.4347 44.8091 41.3588 44.8494 41.2526H53.8026V42.8611H44.1867ZM42.5667 29.5728C42.5667 38.6577 38.1086 47.153 30.9206 51.7932C30.2057 51.5422 29.5117 51.2261 28.8464 50.8486C31.7993 49.2005 34.3187 46.8749 36.2728 44.0952C36.2895 44.0761 36.3055 44.0561 36.3203 44.0349C37.24 42.7013 38.0785 41.2659 38.7009 39.7569C40.0579 36.6286 40.801 33.1627 40.801 29.5727C40.801 29.4699 40.8003 29.3675 40.7992 29.2649L42.461 27.1286C42.5309 27.9397 42.5667 28.7573 42.5667 29.5728V29.5728ZM33.4718 36.4197L30.8499 39.7903H28.9119L32.1828 35.5855C32.6214 35.8466 33.0522 36.1253 33.4718 36.4197V36.4197ZM34.5838 37.2551C35.5135 38.0063 36.3884 38.8454 37.199 39.7661C37.1953 39.7742 37.1913 39.7822 37.1875 39.7903H32.6115L34.5838 37.2551ZM45.6153 18.3174L46.7453 19.3559L38.355 30.1422C37.9467 29.8329 37.5325 29.5346 37.1109 29.2502L45.6153 18.3174ZM47.3519 14.2165C47.6709 13.8064 48.1178 13.5558 48.6101 13.511C49.1031 13.4665 49.5814 13.6325 49.9587 13.9793C50.7376 14.6951 50.8355 15.9662 50.177 16.8129L48.4614 19.0183L45.6365 16.4219L47.3519 14.2165ZM21.6797 37.9978C21.6797 30.0033 27.6633 23.4994 35.0182 23.4994C36.4693 23.4994 37.887 23.7498 39.2442 24.2429L35.9337 28.4987C34.3974 27.5719 32.7824 26.8037 31.0989 26.2012C30.7462 26.0752 30.3658 26.2834 30.2496 26.667C30.1335 27.0506 30.3254 27.4639 30.6782 27.5901C33.8092 28.7105 36.6915 30.4341 39.2519 32.7114C39.1595 33.4215 39.0367 34.1232 38.8836 34.8144C35.4793 31.5489 31.3534 29.3574 26.8973 28.4576C26.532 28.3842 26.181 28.6459 26.113 29.0429C26.0452 29.4398 26.2863 29.8215 26.6515 29.8953C31.0815 30.7898 35.1669 33.0347 38.4783 36.3898C38.2825 37.0561 38.0579 37.7104 37.807 38.3512C35.0364 35.3479 31.6049 33.2104 27.8215 32.1436C27.4618 32.0423 27.0949 32.2769 27.0015 32.6679C26.9083 33.0587 27.1241 33.4577 27.4837 33.5592C28.6801 33.8965 29.8389 34.3481 30.9493 34.9062L27.1502 39.7903H25.5697C25.5433 39.7903 25.5168 39.7921 25.4904 39.7954L21.8427 40.2655C21.735 39.5184 21.6797 38.7584 21.6797 37.9978V37.9978ZM25.6096 41.2526H36.4344C36.1252 41.8039 35.7946 42.3406 35.443 42.8611H25.6095L19.3693 42.0568L25.6096 41.2526ZM22.8662 43.9801L24.2882 44.1634L23.5427 45.3898C23.2934 44.9335 23.0677 44.4628 22.8662 43.9801V43.9801ZM25.8034 44.3234H27.029L23.8322 47.5663L25.8034 44.3234ZM25.3698 48.0067L29.0008 44.3233H34.367C32.4909 46.6652 30.1573 48.5992 27.4716 49.9503C26.7163 49.3872 26.0114 48.737 25.3698 48.0067ZM32.7324 52.2802C35.8899 49.9873 38.548 46.9317 40.4742 43.3641C42.7232 39.1984 43.912 34.4295 43.912 29.5728C43.912 28.746 43.8767 27.9174 43.8085 27.0942C46.6803 29.8322 48.3567 33.7968 48.3567 37.9978C48.3567 38.5971 48.3224 39.1979 48.2553 39.7903H46.5783C46.3244 39.321 46.0576 38.8551 45.7817 38.4023C45.7815 38.402 45.7814 38.4018 45.7813 38.4016C46.0662 37.3716 46.3033 36.3223 46.4874 35.2565C46.556 34.8597 46.3156 34.4776 45.9505 34.403C45.586 34.3287 45.2339 34.5897 45.1652 34.9867C44.8452 36.8391 44.3602 38.6403 43.7257 40.3699C43.3684 41.3444 42.9605 42.3015 42.5083 43.2274C40.7704 46.7858 38.3548 49.9467 35.3844 52.4887C35.2625 52.4923 35.1406 52.4962 35.0182 52.4962C34.2463 52.4962 33.482 52.422 32.7324 52.2802V52.2802ZM41.6502 47.4848C41.9416 48.34 42.1849 49.2164 42.3779 50.103C40.9981 51.0934 39.4473 51.8027 37.7961 52.1805C39.2334 50.7545 40.5232 49.1801 41.6502 47.4848ZM43.5476 49.1591C43.2875 48.0907 42.9586 47.0398 42.5652 46.0232C42.8915 45.4675 43.2017 44.9008 43.4941 44.3234H43.8014C44.2655 45.3982 44.6627 46.5134 44.9854 47.6469C44.5404 48.1918 44.0593 48.6966 43.5476 49.1591V49.1591ZM45.9826 46.2658C45.771 45.6092 45.5364 44.9603 45.2791 44.3234H47.0226C46.7189 45.0058 46.3711 45.6547 45.9826 46.2658ZM57.8049 44.0675H55.1479V40.0462H57.8049C58.8249 40.0462 59.6547 40.9481 59.6547 42.0568C59.6547 43.1655 58.8249 44.0675 57.8049 44.0675Z" fill="black"/>
</g>
<defs>
<clipPath id="clip0">
<rect width="46" height="50" fill="white" transform="translate(15 8)"/>
</clipPath>
</defs>
</svg>
