<svg width="76" height="76" viewBox="0 0 76 76" fill="none" xmlns="http://www.w3.org/2000/svg">
<circle cx="38" cy="38" r="38" fill="#E4E4E4"/>
<path d="M51.7779 25.8082H46.3679V17.3219C46.3679 14.3874 43.5908 12 40.1771 12H34.8229C31.4093 12 28.6321 14.3874 28.6321 17.3219V25.8082H23.2221C22.2687 25.8082 21.4932 26.4749 21.4932 27.2945V59.5137C21.4932 60.3333 22.2687 61 23.2221 61H51.7779C52.7313 61 53.5069 60.3333 53.5069 59.5137V27.2945C53.5069 26.4749 52.7313 25.8082 51.7779 25.8082ZM45.1813 44.1375C45.0053 44.2248 44.8461 44.3277 44.7034 44.4421C44.5608 44.3276 44.4016 44.2248 44.2256 44.1375C43.9155 43.9836 43.13 43.6855 42.2002 43.386C43.0808 43.0989 43.8163 42.8184 44.114 42.6706C44.29 42.5833 44.4492 42.4804 44.5918 42.366C44.7344 42.4805 44.8935 42.5833 45.0695 42.6706C45.3796 42.8245 46.165 43.1226 47.0946 43.422C46.2298 43.7034 45.4975 43.9805 45.1813 44.1375ZM30.7849 44.1375C30.6104 44.2242 30.4523 44.326 30.3105 44.4393C30.1688 44.326 30.0108 44.2241 29.8362 44.1375C29.526 43.9836 28.7405 43.6855 27.8109 43.386C28.6914 43.0989 29.4271 42.8184 29.7246 42.6706C29.8992 42.584 30.0572 42.4821 30.199 42.3688C30.3408 42.4821 30.4987 42.5841 30.6733 42.6706C30.9834 42.8245 31.7688 43.1226 32.6984 43.422C31.8335 43.7034 31.1012 43.9805 30.7849 44.1375ZM23.1664 42.5912C23.6656 42.6141 24.064 42.9693 24.064 43.4041C24.064 43.8389 23.6656 44.1941 23.1664 44.217V42.5912ZM25.1316 41.9654C26.2164 41.084 27.5623 40.2006 27.9399 40.0132C28.1592 39.9044 28.4146 39.8753 28.6593 39.9318C28.9039 39.9881 29.1084 40.123 29.235 40.3115C29.4964 40.7008 29.3408 41.2003 28.888 41.4249C28.5162 41.6095 26.9715 42.1661 25.5344 42.5354C25.4331 42.328 25.2968 42.1361 25.1316 41.9654ZM23.3733 41.1617C23.3051 41.156 23.236 41.153 23.1664 41.1518V37.232C23.6121 37.2985 23.9524 37.6325 23.9524 38.0342C23.9524 38.4065 23.732 39.8892 23.3733 41.1617ZM23.1664 45.6565C23.2546 45.655 23.3416 45.6499 23.4275 45.6411C23.7871 46.9149 24.0082 48.4014 24.0082 48.7741C24.0082 49.1926 23.6393 49.538 23.1664 49.5837V45.6565ZM25.5461 44.2471C27.0107 44.6158 28.6191 45.1943 28.9994 45.3831C29.4522 45.6079 29.6079 46.1074 29.3466 46.4965C29.22 46.685 29.0155 46.8199 28.7708 46.8762C28.5261 46.9326 28.2706 46.9037 28.0513 46.7948C27.6767 46.6089 26.2838 45.6971 25.1794 44.7909C25.3296 44.6264 25.4535 44.4438 25.5461 44.2471ZM36.5571 43.4041C36.5571 42.9547 36.9824 42.589 37.5053 42.589C38.0281 42.589 38.4534 42.9547 38.4534 43.4041C38.4534 43.8535 38.0281 44.2192 37.5053 44.2192C36.9824 44.2192 36.5571 43.8535 36.5571 43.4041ZM39.521 41.9654C40.6058 41.0841 41.9518 40.2007 42.3293 40.0132C42.5487 39.9044 42.8042 39.8753 43.0488 39.9318C43.2934 39.9881 43.4978 40.123 43.6246 40.3115C43.8859 40.7008 43.7302 41.2003 43.2775 41.425C42.9056 41.6096 41.361 42.1662 39.9239 42.5355C39.8226 42.328 39.6862 42.1361 39.521 41.9654ZM37.7627 41.1617C37.6779 41.1546 37.592 41.1507 37.5053 41.1507C37.3437 41.1507 37.1858 41.164 37.0323 41.1882C36.6692 39.9099 36.4456 38.409 36.4456 38.0342C36.4456 37.5848 36.8709 37.2192 37.3937 37.2192C37.9165 37.2192 38.3419 37.5848 38.3419 38.0342C38.3419 38.4064 38.1214 39.8892 37.7627 41.1617ZM35.0635 42.5859C33.5728 42.2188 31.8991 41.6181 31.5099 41.425C31.0571 41.2003 30.9014 40.7008 31.1629 40.3116C31.2895 40.1231 31.4939 39.9882 31.7387 39.9319C31.9833 39.8755 32.2388 39.9045 32.4581 40.0133C32.851 40.2084 34.2902 41.1554 35.3942 42.0703C35.2591 42.2277 35.1477 42.401 35.0635 42.5859ZM31.1797 45.8781C31.2452 45.6678 31.4021 45.492 31.6214 45.3831C32.0131 45.1887 33.6235 44.6127 35.0749 44.2472C35.1675 44.4438 35.2914 44.6264 35.4414 44.791C34.3464 45.6892 32.9545 46.6039 32.5696 46.7949C32.3503 46.9037 32.0947 46.9327 31.8501 46.8763C31.6055 46.82 31.401 46.6851 31.2744 46.4966C31.1478 46.3081 31.1141 46.0884 31.1797 45.8781ZM37.0856 45.6283C37.2223 45.6473 37.3624 45.6575 37.5051 45.6575C37.6107 45.6575 37.7145 45.6515 37.8168 45.641C38.1764 46.9148 38.3975 48.4013 38.3975 48.774C38.3975 49.2234 37.9722 49.589 37.4494 49.589C36.9266 49.589 36.5012 49.2234 36.5012 48.774C36.5013 48.4 36.7239 46.9048 37.0856 45.6283ZM39.9355 44.2471C41.4002 44.6158 43.0085 45.1943 43.389 45.3831C43.6083 45.4919 43.7652 45.6677 43.8307 45.8781C43.8963 46.0884 43.8626 46.308 43.736 46.4966C43.6094 46.6852 43.4049 46.82 43.1602 46.8763C42.9157 46.9327 42.6601 46.9036 42.4407 46.7949C42.0661 46.609 40.6733 45.6972 39.5689 44.791C39.719 44.6264 39.8429 44.4437 39.9355 44.2471ZM50.9535 43.4041C50.9535 42.9744 51.3425 42.6221 51.8337 42.592V44.2162C51.3425 44.1861 50.9535 43.8338 50.9535 43.4041ZM51.8337 41.1521C51.6957 41.1552 51.5605 41.1674 51.4285 41.1881C51.0655 39.9098 50.8418 38.4089 50.8418 38.0341C50.8418 37.5847 51.2671 37.2191 51.7899 37.2191C51.8047 37.2191 51.8191 37.2178 51.8336 37.2172V41.1521H51.8337ZM49.46 42.5859C47.9693 42.2188 46.2955 41.6181 45.9063 41.425C45.4536 41.2003 45.298 40.7009 45.5593 40.3115C45.6859 40.123 45.8904 39.9881 46.135 39.9318C46.3796 39.8754 46.6352 39.9044 46.8544 40.0132C47.2472 40.2083 48.6864 41.1554 49.7906 42.0702C49.6555 42.2278 49.5441 42.401 49.46 42.5859ZM46.0179 45.3832C46.4095 45.1888 48.02 44.6128 49.4715 44.2473C49.564 44.4438 49.688 44.6265 49.838 44.7911C48.7428 45.6893 47.351 46.6039 46.9661 46.7949C46.5134 47.0196 45.9324 46.8858 45.671 46.4966C45.4094 46.1074 45.5651 45.6079 46.0179 45.3832ZM51.4821 45.6283C51.597 45.6442 51.7144 45.6534 51.8337 45.656V49.5885C51.3165 49.5828 50.8977 49.2199 50.8977 48.7739C50.8977 48.4 51.1202 46.9048 51.4821 45.6283ZM51.8337 35.7827C51.8192 35.7821 51.8048 35.7808 51.7901 35.7808C50.3446 35.7808 49.1687 36.7917 49.1687 38.0342C49.1687 38.3409 49.2555 39.0458 49.4119 39.8633C48.6711 39.3411 48.0053 38.9237 47.691 38.7677C47.0846 38.4667 46.3782 38.3868 45.7019 38.5426C45.2802 38.6397 44.9019 38.8212 44.5919 39.0704C44.2818 38.8212 43.9034 38.6397 43.4819 38.5426C42.8056 38.3867 42.0992 38.4666 41.4928 38.7677C41.1787 38.9236 40.5129 39.341 39.772 39.8633C39.9284 39.0458 40.0152 38.341 40.0152 38.0342C40.0152 36.7917 38.8392 35.7808 37.3938 35.7808C35.9484 35.7808 34.7725 36.7917 34.7725 38.0342C34.7725 38.3409 34.8593 39.0458 35.0157 39.8633C34.2749 39.3411 33.6091 38.9237 33.2947 38.7677C32.6884 38.4667 31.9819 38.3868 31.3056 38.5426C30.8856 38.6393 30.5085 38.8201 30.1991 39.0679C29.8897 38.8201 29.5127 38.6393 29.0926 38.5426C28.4163 38.3867 27.7098 38.4666 27.1034 38.7677C26.7893 38.9236 26.1234 39.341 25.3825 39.8633C25.5389 39.0459 25.6257 38.341 25.6257 38.0343C25.6257 36.8386 24.5366 35.8579 23.1665 35.7856V34.8422C23.6534 34.7474 23.9872 34.5796 24.2732 34.4353C24.6127 34.2639 24.8369 34.1508 25.3693 34.1508C25.9017 34.1508 26.126 34.264 26.4654 34.4353C26.8913 34.6503 27.4214 34.9179 28.4087 34.9179C29.3951 34.9179 29.9246 34.6502 30.3501 34.4351C30.6888 34.2638 30.9124 34.1508 31.4433 34.1508C31.9739 34.1508 32.1976 34.2638 32.536 34.435C32.9613 34.6502 33.4908 34.9179 34.477 34.9179C35.4632 34.9179 35.9926 34.6502 36.4179 34.435C36.7563 34.2638 36.9799 34.1508 37.5104 34.1508C38.0398 34.1508 38.263 34.2637 38.6008 34.4348C39.0259 34.65 39.5548 34.9179 40.5404 34.9179C41.5266 34.9179 42.056 34.6502 42.4813 34.435C42.8198 34.2638 43.0433 34.1508 43.5738 34.1508C44.1043 34.1508 44.3279 34.2638 44.6663 34.435C45.0916 34.6501 45.6211 34.9179 46.6073 34.9179C47.5933 34.9179 48.1225 34.6502 48.5478 34.4349C48.886 34.2637 49.1094 34.1508 49.6395 34.1508C50.1691 34.1508 50.3924 34.2638 50.7303 34.4349C51.0155 34.5793 51.3482 34.747 51.8336 34.842V35.7827H51.8337ZM23.1664 51.0251C24.5626 50.977 25.6814 49.9859 25.6814 48.774C25.6814 48.4616 25.5913 47.736 25.4293 46.8991C26.2011 47.4461 26.8981 47.8833 27.2148 48.0406C27.6188 48.2411 28.067 48.3435 28.5212 48.3435C28.7489 48.3435 28.9781 48.3177 29.204 48.2658C29.6241 48.169 30.0011 47.9882 30.3105 47.7404C30.62 47.9882 30.997 48.169 31.4171 48.2658C31.643 48.3177 31.8721 48.3435 32.0998 48.3435C32.5541 48.3435 33.0024 48.2411 33.4063 48.0406C33.7112 47.8893 34.3478 47.4913 35.0627 46.9903C34.9117 47.7884 34.8282 48.473 34.8282 48.774C34.8282 50.0165 36.0041 51.0274 37.4495 51.0274C38.8949 51.0274 40.0708 50.0165 40.0708 48.774C40.0708 48.4616 39.9807 47.736 39.8187 46.8991C40.5905 47.4461 41.2876 47.8833 41.6043 48.0406C42.0162 48.2449 42.4662 48.3421 42.9106 48.3421C43.5687 48.3421 44.2134 48.1281 44.7034 47.7352C45.1935 48.1281 45.8382 48.3421 46.4963 48.3421C46.9407 48.3421 47.3909 48.2449 47.8025 48.0406C48.1075 47.8892 48.7441 47.4913 49.459 46.9903C49.308 47.7883 49.2244 48.473 49.2244 48.774C49.2244 50.0131 50.3937 51.0215 51.8336 51.0271V51.966C51.3467 52.0608 51.0128 52.2286 50.7268 52.3729C50.3874 52.5443 50.1632 52.6574 49.6308 52.6574C49.0983 52.6574 48.874 52.5442 48.5346 52.3729C48.1087 52.1579 47.5786 51.8903 46.5913 51.8903C45.6049 51.8903 45.0754 52.158 44.6499 52.3731C44.3112 52.5444 44.0876 52.6574 43.5567 52.6574C43.0261 52.6574 42.8025 52.5444 42.464 52.3732C42.0387 52.158 41.5092 51.8903 40.523 51.8903C39.5368 51.8903 39.0074 52.158 38.5821 52.3732C38.2437 52.5444 38.0202 52.6574 37.4896 52.6574C36.9602 52.6574 36.737 52.5445 36.3993 52.3734C35.9742 52.1582 35.4452 51.8903 34.4596 51.8903C33.4734 51.8903 32.944 52.158 32.5187 52.3732C32.1803 52.5444 31.9567 52.6574 31.4262 52.6574C30.8957 52.6574 30.6722 52.5444 30.3337 52.3732C29.9084 52.1581 29.3789 51.8903 28.3927 51.8903C27.4068 51.8903 26.8775 52.158 26.4523 52.3733C26.1141 52.5445 25.8906 52.6574 25.3606 52.6574C24.831 52.6574 24.6076 52.5444 24.2698 52.3733C23.9845 52.2289 23.6518 52.0612 23.1665 51.9663V51.0251H23.1664ZM30.3053 17.3219C30.3053 15.1805 32.3319 13.4384 34.8229 13.4384H40.1771C42.6682 13.4384 44.6947 15.1805 44.6947 17.3219V25.8082H30.3053V17.3219ZM23.2221 27.2466H51.7779C51.8087 27.2466 51.8337 27.2681 51.8337 27.2945V29.6462C51.8152 29.6452 51.7965 29.6438 51.7779 29.6438C51.5582 29.6438 51.3418 29.7205 51.1867 29.8548C51.0305 29.9881 50.9413 30.1741 50.9413 30.363C50.9413 30.5519 51.0305 30.7379 51.1867 30.8712C51.3418 31.0055 51.5582 31.0822 51.7779 31.0822C51.7965 31.0822 51.815 31.0808 51.8337 31.0798V33.3187C51.7518 33.2824 51.6697 33.241 51.5795 33.1953C51.1544 32.9802 50.6253 32.7123 49.6396 32.7123C48.6536 32.7123 48.1244 32.9801 47.6991 33.1953C47.3609 33.3665 47.1375 33.4795 46.6073 33.4795C46.0768 33.4795 45.8531 33.3664 45.5148 33.1952C45.0895 32.9801 44.5601 32.7123 43.5739 32.7123C42.5877 32.7123 42.0583 32.9801 41.6329 33.1952C41.2945 33.3664 41.0709 33.4795 40.5404 33.4795C40.0109 33.4795 39.7878 33.3664 39.4499 33.1954C39.025 32.9802 38.496 32.7123 37.5104 32.7123C36.5242 32.7123 35.9948 32.9801 35.5695 33.1952C35.2311 33.3664 35.0075 33.4795 34.477 33.4795C33.9464 33.4795 33.7228 33.3664 33.3843 33.1952C32.959 32.9801 32.4295 32.7123 31.4432 32.7123C30.4568 32.7123 29.9273 32.9801 29.5018 33.1951C29.1632 33.3663 28.9395 33.4795 28.4087 33.4795C27.8763 33.4795 27.6521 33.3662 27.3126 33.1949C26.8866 32.98 26.3566 32.7123 25.3693 32.7123C24.382 32.7123 23.8519 32.98 23.426 33.1949C23.3338 33.2415 23.2501 33.2835 23.1665 33.3204V31.0798C23.1851 31.0808 23.2036 31.0822 23.2222 31.0822C23.442 31.0822 23.6584 31.0055 23.8134 30.8712C23.9696 30.7379 24.0588 30.5519 24.0588 30.363C24.0588 30.1741 23.9696 29.9881 23.8134 29.8548C23.6584 29.7205 23.442 29.6438 23.2222 29.6438C23.2036 29.6438 23.1851 29.6452 23.1665 29.6462V27.2945C23.1664 27.2681 23.1913 27.2466 23.2221 27.2466ZM51.7779 59.5616H23.2221C23.1913 59.5616 23.1664 59.5402 23.1664 59.5137V57.162C23.185 57.163 23.2035 57.1644 23.2221 57.1644C23.4419 57.1644 23.6583 57.0877 23.8133 56.9534C23.9695 56.8201 24.0587 56.6341 24.0587 56.4452C24.0587 56.2563 23.9695 56.0703 23.8133 55.937C23.6583 55.8027 23.4419 55.726 23.2221 55.726C23.2035 55.726 23.185 55.7274 23.1664 55.7284V53.4895C23.2482 53.5258 23.3303 53.5672 23.4206 53.6129C23.8457 53.8281 24.3747 54.0959 25.3605 54.0959C26.3464 54.0959 26.8756 53.8282 27.3009 53.6129C27.6391 53.4417 27.8626 53.3288 28.3927 53.3288C28.9232 53.3288 29.1469 53.4418 29.4852 53.613C29.9105 53.8282 30.4399 54.0959 31.4261 54.0959C32.4123 54.0959 32.9417 53.8282 33.3671 53.613C33.7056 53.4418 33.9291 53.3288 34.4596 53.3288C34.9891 53.3288 35.2122 53.4418 35.5501 53.6128C35.9751 53.828 36.504 54.0959 37.4896 54.0959C38.4758 54.0959 39.0052 53.8282 39.4305 53.613C39.769 53.4418 39.9925 53.3288 40.523 53.3288C41.0536 53.3288 41.2772 53.4418 41.6157 53.613C42.0411 53.8282 42.5706 54.0959 43.5569 54.0959C44.5433 54.0959 45.0728 53.8282 45.4982 53.6131C45.8368 53.4419 46.0605 53.3288 46.5913 53.3288C47.1238 53.3288 47.348 53.442 47.6874 53.6133C48.1134 53.8283 48.6435 54.0959 49.6308 54.0959C50.618 54.0959 51.1481 53.8283 51.574 53.6133C51.6662 53.5668 51.7499 53.5247 51.8336 53.4878V55.7284C51.815 55.7274 51.7964 55.726 51.7778 55.726C51.558 55.726 51.3416 55.8027 51.1866 55.937C51.0304 56.0703 50.9412 56.2563 50.9412 56.4452C50.9412 56.6341 51.0304 56.8201 51.1866 56.9534C51.3416 57.0877 51.558 57.1644 51.7778 57.1644C51.7964 57.1644 51.815 57.163 51.8336 57.162V59.5137C51.8337 59.5402 51.8087 59.5616 51.7779 59.5616Z" fill="black"/>
<path d="M26.7914 31.0821C27.0112 31.0821 27.2276 31.0054 27.3826 30.8712C27.5388 30.7379 27.628 30.5519 27.628 30.363C27.628 30.1741 27.5388 29.988 27.3826 29.8548C27.2276 29.7205 27.0112 29.6438 26.7914 29.6438C26.5706 29.6438 26.3553 29.7205 26.2002 29.8548C26.0441 29.988 25.9548 30.1741 25.9548 30.363C25.9548 30.5519 26.0441 30.7379 26.2002 30.8712C26.3553 31.0054 26.5717 31.0821 26.7914 31.0821Z" fill="black"/>
<path d="M33.9308 31.0821C34.1506 31.0821 34.367 31.0054 34.522 30.8712C34.6782 30.7379 34.7674 30.5519 34.7674 30.363C34.7674 30.1741 34.6782 29.988 34.522 29.8548C34.367 29.7205 34.1506 29.6438 33.9308 29.6438C33.7111 29.6438 33.4947 29.7205 33.3396 29.8548C33.1835 29.988 33.0942 30.1741 33.0942 30.363C33.0942 30.5519 33.1835 30.7379 33.3396 30.8712C33.4947 31.0054 33.7111 31.0821 33.9308 31.0821Z" fill="black"/>
<path d="M37.4999 31.0821C37.7197 31.0821 37.9361 31.0054 38.0911 30.8712C38.2473 30.7379 38.3365 30.5519 38.3365 30.363C38.3365 30.1741 38.2473 29.988 38.0911 29.8548C37.9361 29.7205 37.7197 29.6438 37.4999 29.6438C37.2791 29.6438 37.0638 29.7205 36.9087 29.8548C36.7526 29.988 36.6633 30.1741 36.6633 30.363C36.6633 30.5519 36.7526 30.7379 36.9087 30.8712C37.0638 31.0054 37.2802 31.0821 37.4999 31.0821Z" fill="black"/>
<path d="M41.0695 31.0821C41.2893 31.0821 41.5056 31.0054 41.6607 30.8712C41.8169 30.7379 41.9061 30.5528 41.9061 30.363C41.9061 30.1731 41.8169 29.988 41.6607 29.8548C41.5056 29.7205 41.2893 29.6438 41.0695 29.6438C40.8498 29.6438 40.6334 29.7205 40.4783 29.8548C40.3221 29.988 40.2329 30.1741 40.2329 30.363C40.2329 30.5519 40.3221 30.7379 40.4783 30.8712C40.6334 31.0054 40.8498 31.0821 41.0695 31.0821Z" fill="black"/>
<path d="M44.6391 31.0821C44.8588 31.0821 45.0752 31.0054 45.2303 30.8712C45.3864 30.7379 45.4757 30.5519 45.4757 30.363C45.4757 30.1741 45.3864 29.988 45.2303 29.8548C45.0752 29.7205 44.8588 29.6438 44.6391 29.6438C44.4193 29.6438 44.2029 29.7205 44.0479 29.8548C43.8917 29.988 43.8025 30.1741 43.8025 30.363C43.8025 30.5519 43.8917 30.7379 44.0479 30.8712C44.2029 31.0054 44.4193 31.0821 44.6391 31.0821Z" fill="black"/>
<path d="M48.2082 31.0821C48.4279 31.0821 48.6443 31.0054 48.7994 30.8712C48.9555 30.7379 49.0448 30.5519 49.0448 30.363C49.0448 30.1741 48.9555 29.988 48.7994 29.8548C48.6443 29.7205 48.4279 29.6438 48.2082 29.6438C47.9873 29.6438 47.772 29.7205 47.617 29.8548C47.4608 29.988 47.3716 30.1731 47.3716 30.363C47.3716 30.5519 47.4608 30.7379 47.617 30.8712C47.772 31.0054 47.9884 31.0821 48.2082 31.0821Z" fill="black"/>
<path d="M30.361 31.0821C30.5808 31.0821 30.7972 31.0054 30.9522 30.8712C31.1084 30.7379 31.1976 30.5519 31.1976 30.363C31.1976 30.1731 31.1084 29.988 30.9522 29.8548C30.7972 29.7205 30.5808 29.6438 30.361 29.6438C30.1413 29.6438 29.9249 29.7205 29.7698 29.8548C29.6137 29.988 29.5244 30.1741 29.5244 30.363C29.5244 30.5519 29.6137 30.7379 29.7698 30.8712C29.9249 31.0054 30.1413 31.0821 30.361 31.0821Z" fill="black"/>
<path d="M26.7914 55.726C26.5717 55.726 26.3553 55.8027 26.2002 55.9369C26.0441 56.0702 25.9548 56.2563 25.9548 56.4452C25.9548 56.6341 26.0441 56.8201 26.2002 56.9534C26.3553 57.0876 26.5717 57.1643 26.7914 57.1643C27.0112 57.1643 27.2276 57.0876 27.3826 56.9534C27.5388 56.8201 27.628 56.6341 27.628 56.4452C27.628 56.2563 27.5388 56.0702 27.3826 55.9369C27.2276 55.8027 27.0112 55.726 26.7914 55.726Z" fill="black"/>
<path d="M33.9308 55.726C33.7111 55.726 33.4947 55.8027 33.3396 55.9369C33.1835 56.0702 33.0942 56.2563 33.0942 56.4452C33.0942 56.6341 33.1835 56.8201 33.3396 56.9534C33.4947 57.0876 33.7111 57.1643 33.9308 57.1643C34.1506 57.1643 34.367 57.0876 34.522 56.9534C34.6782 56.8201 34.7674 56.6341 34.7674 56.4452C34.7674 56.2563 34.6782 56.0702 34.522 55.9369C34.367 55.8027 34.1506 55.726 33.9308 55.726Z" fill="black"/>
<path d="M37.4999 55.726C37.2802 55.726 37.0638 55.8027 36.9087 55.9369C36.7526 56.0702 36.6633 56.2563 36.6633 56.4452C36.6633 56.6341 36.7526 56.8201 36.9087 56.9534C37.0638 57.0876 37.2802 57.1643 37.4999 57.1643C37.7197 57.1643 37.9361 57.0876 38.0911 56.9534C38.2473 56.8201 38.3365 56.6341 38.3365 56.4452C38.3365 56.2563 38.2473 56.0702 38.0911 55.9369C37.9361 55.8027 37.7197 55.726 37.4999 55.726Z" fill="black"/>
<path d="M41.0695 55.726C40.8498 55.726 40.6334 55.8027 40.4783 55.9369C40.3221 56.0702 40.2329 56.2563 40.2329 56.4452C40.2329 56.6341 40.3221 56.8201 40.4783 56.9534C40.6334 57.0876 40.8498 57.1643 41.0695 57.1643C41.2893 57.1643 41.5056 57.0876 41.6607 56.9534C41.8169 56.8201 41.9061 56.6341 41.9061 56.4452C41.9061 56.2563 41.8169 56.0702 41.6607 55.9369C41.5056 55.8027 41.2893 55.726 41.0695 55.726Z" fill="black"/>
<path d="M44.6391 55.726C44.4193 55.726 44.2029 55.8027 44.0479 55.9369C43.8917 56.0702 43.8025 56.2563 43.8025 56.4452C43.8025 56.6341 43.8917 56.8201 44.0479 56.9534C44.2029 57.0876 44.4193 57.1643 44.6391 57.1643C44.8588 57.1643 45.0752 57.0876 45.2303 56.9534C45.3864 56.8201 45.4757 56.6341 45.4757 56.4452C45.4757 56.2563 45.3864 56.0702 45.2303 55.9369C45.0752 55.8027 44.8588 55.726 44.6391 55.726Z" fill="black"/>
<path d="M48.2082 55.726C47.9884 55.726 47.772 55.8027 47.617 55.9369C47.4608 56.0702 47.3716 56.2563 47.3716 56.4452C47.3716 56.6341 47.4608 56.8201 47.617 56.9534C47.772 57.0876 47.9884 57.1643 48.2082 57.1643C48.429 57.1643 48.6443 57.0876 48.7994 56.9534C48.9555 56.8201 49.0448 56.6341 49.0448 56.4452C49.0448 56.2563 48.9555 56.0702 48.7994 55.9369C48.6443 55.8027 48.429 55.726 48.2082 55.726Z" fill="black"/>
<path d="M30.361 55.726C30.1413 55.726 29.9249 55.8027 29.7698 55.9369C29.6137 56.0702 29.5244 56.2563 29.5244 56.4452C29.5244 56.6341 29.6137 56.8201 29.7698 56.9534C29.9249 57.0876 30.1413 57.1643 30.361 57.1643C30.5808 57.1643 30.7972 57.0876 30.9522 56.9534C31.1084 56.8201 31.1976 56.6341 31.1976 56.4452C31.1976 56.2563 31.1084 56.0702 30.9522 55.9369C30.7972 55.8027 30.5808 55.726 30.361 55.726Z" fill="black"/>
</svg>
