<svg width="76" height="76" viewBox="0 0 76 76" fill="none" xmlns="http://www.w3.org/2000/svg">
<circle cx="38" cy="38" r="38" fill="#E4E4E4"/>
<path d="M56.2796 16H20.7203C20.2819 16 19.9265 16.3191 19.9265 16.7127V59.2873C19.9265 59.6809 20.2819 60 20.7203 60H56.2796C56.718 60 57.0734 59.6809 57.0734 59.2873V16.7127C57.0734 16.3191 56.718 16 56.2796 16ZM21.514 18.4334L23.3131 20.049V55.951L21.514 57.5665V18.4334ZM24.9006 55.5335V20.4665H52.0993V55.5335H24.9006ZM52.5643 19.041H24.4356L22.6364 17.4255H54.3633L52.5643 19.041ZM24.4356 56.959H52.5642L54.3633 58.5745H22.6364L24.4356 56.959ZM53.6868 55.951V20.049L55.4859 18.4334V57.5665L53.6868 55.951Z" fill="black"/>
<path d="M49.5064 22.0821H27.4934C27.0551 22.0821 26.6997 22.4012 26.6997 22.7948V53.2052C26.6997 53.5988 27.0551 53.9179 27.4934 53.9179H49.5064C49.9448 53.9179 50.3001 53.5988 50.3001 53.2052V22.7948C50.3001 22.4012 49.9448 22.0821 49.5064 22.0821ZM36.2637 38.1018C35.9673 37.9915 35.6257 38.0524 35.3987 38.2563L35.02 38.5964C34.1378 39.3886 32.7023 39.3887 31.8184 38.5949C31.2596 38.0931 31.0315 37.3538 31.2232 36.6654L34.2667 25.7334L35.4001 29.8047C35.3071 29.7888 35.2114 29.7797 35.1133 29.7797C34.2672 29.7797 33.5788 30.3979 33.5788 31.1577C33.5788 31.9174 34.2672 32.5356 35.1133 32.5356C35.4774 32.5356 35.8119 32.4206 36.0753 32.2297L38.5416 41.0885H36.7537V38.7603C36.7537 38.4719 36.5603 38.2121 36.2637 38.1018ZM35.1662 31.1577C35.1662 31.1839 35.1425 31.2052 35.1133 31.2052C35.0841 31.2052 35.0604 31.1839 35.0604 31.1577C35.0604 31.1314 35.0841 31.1101 35.1133 31.1101C35.1425 31.1101 35.1662 31.1314 35.1662 31.1577ZM35.96 50.0454C37.6116 50.0454 38.9946 51.0963 39.3243 52.4924H32.5956C32.9254 51.0963 34.3084 50.0454 35.96 50.0454ZM36.7537 48.6767V46.472L40.2134 47.0934L41.7166 52.4924H40.9353C40.6245 50.5397 38.9174 48.9862 36.7537 48.6767ZM37.7432 45.1959L39.3504 43.9933L39.7875 45.5631L37.7432 45.1959ZM43.1314 51.697L40.7045 42.98L41.548 42.3488C41.8047 42.1567 41.9 41.8407 41.7862 41.5586C41.6724 41.2764 41.374 41.0884 41.0399 41.0884H40.178L38.3091 34.3757C39.4686 35.1752 41.0313 35.6478 42.6803 35.6478C44.5535 35.6478 46.3155 35.0379 47.5012 34.0318C48.2952 35.8928 48.7127 37.8831 48.7127 39.9006C48.7127 44.3735 46.6919 48.613 43.1314 51.697ZM46.7433 32.6782C46.5088 32.9391 46.2212 33.1722 45.8948 33.3745C45.9548 33.151 45.9875 32.9179 45.9875 32.6782C45.9875 32.4384 45.9548 32.2054 45.8948 31.9819C46.2212 32.1842 46.5087 32.4172 46.7433 32.6782ZM44.4 32.6782C44.4 33.5297 43.6285 34.2225 42.6803 34.2225C41.732 34.2225 40.9605 33.5297 40.9605 32.6782C40.9605 31.8267 41.732 31.1339 42.6803 31.1339C43.6285 31.1339 44.4 31.8267 44.4 32.6782ZM39.4657 33.3745C39.1394 33.1721 38.8518 32.9391 38.6172 32.6782C38.8517 32.4172 39.1394 32.1842 39.4657 31.9819C39.4057 32.2054 39.373 32.4384 39.373 32.6782C39.373 32.9179 39.4057 33.151 39.4657 33.3745ZM42.6803 29.7084C40.6315 29.7084 38.7152 30.4375 37.541 31.6171L35.4568 24.1314C38.988 25.0353 42.1738 26.8982 44.5354 29.4639C44.7101 29.6538 44.8795 29.847 45.044 30.0432C44.3037 29.8263 43.5028 29.7084 42.6803 29.7084ZM28.2872 23.5075H33.25L29.6831 36.3196C29.3569 37.491 29.745 38.7489 30.6975 39.6043C31.9047 40.6883 33.7205 40.9006 35.1662 40.2412V41.8013C35.1662 42.1949 35.5216 42.514 35.96 42.514H38.8476L35.4519 45.055C35.2709 45.1904 35.1662 45.391 35.1662 45.6026V48.6767C33.0025 48.9863 31.2954 50.5397 30.9846 52.4924H28.2872V23.5075ZM48.7127 52.4924H44.4963C46.3035 50.8685 47.7274 48.9645 48.7127 46.889V52.4924ZM45.7591 28.5558C43.7273 26.3484 41.1333 24.6198 38.236 23.5075H48.7127V32.9223C47.9708 31.3555 46.9797 29.8818 45.7591 28.5558Z" fill="black"/>
</svg>
